<?xml version="1.0" standalone="no"?><!DOCTYPE svg PUBLIC "-//W3C//DTD SVG 1.1//EN" "http://www.w3.org/Graphics/SVG/1.1/DTD/svg11.dtd"><svg t="1577274032643" class="icon" viewBox="0 0 1024 1024" version="1.1" xmlns="http://www.w3.org/2000/svg" p-id="18446" xmlns:xlink="http://www.w3.org/1999/xlink" width="200" height="200"><defs><style type="text/css"></style></defs><path d="M469.63468 510.914541c39.898826-42.810448 83.861124-84.469045 126.095647-126.671573l127.247498-127.247497 190.311319-190.311319c8.670875-8.670875 24.860776-22.557075 31.803875-31.22795 12.734349-16.765826-2.87962699-39.898826-23.708925-34.715498-10.398651 2.879627-119.152547 116.272921-128.431344 125.519722l-349.394688 349.394687c-5.791249 5.791249-10.398651 9.822726-16.1899 15.613976-25.436701 24.860776-8.09495 34.139573 15.613975 58.424423L855.984576 962.69595C866.991148 973.702523 910.953447 1021.696299 923.079874 1023.424075 942.181397 1026.879627 957.219447 1006.658249 945.636949 989.284502c-12.158423-16.765826-469.699086-465.667609-476.06626-478.369961z" p-id="18447"></path><path d="M129.486793 510.914541c39.898826-42.810448 83.861124-84.469045 126.095647-126.671573l127.247498-127.247497 190.311319-190.31131901c8.670875-8.670875 24.860776-22.557075 31.803875-31.22794999 12.734349-16.765826-2.87962699-39.898826-24.28485-34.71549801-9.822726 2.87962699-118.576622 116.272921-128.431344 125.51972201l-348.818763 349.394687c-5.791249 5.791249-10.398651 9.822726-16.1899 15.613976-25.436701 24.860776-8.09495 34.139573 15.613975 58.424423L515.836689 962.69595c11.006573 11.006573 54.936875 59.000348 67.09529801 60.728125 19.101523 3.455552 34.139573-16.765826 22.55707499-34.139573-12.158423-16.765826-469.699086-465.667609-476.06626-478.369961z" p-id="18448"></path></svg>