<?xml version="1.0" standalone="no"?><!DOCTYPE svg PUBLIC "-//W3C//DTD SVG 1.1//EN" "http://www.w3.org/Graphics/SVG/1.1/DTD/svg11.dtd"><svg t="1577271885859" class="icon" viewBox="0 0 1024 1024" version="1.1" xmlns="http://www.w3.org/2000/svg" p-id="17124" xmlns:xlink="http://www.w3.org/1999/xlink" width="200" height="200"><defs><style type="text/css"></style></defs><path d="M554.36532 513.085459c-39.898826 42.810448-83.861124 84.469045-126.095647 126.671573l-127.247498 127.247497-190.311319 190.311319c-8.670875 8.670875-24.860776 22.557075-31.803875 31.22795-12.734349 16.765826 2.879627 39.898826 23.708925 34.715498 10.398651-2.879627 119.152547-116.272921 128.431344-125.519722l349.394688-349.394687c5.791249-5.791249 10.398651-9.822726 16.1899-15.613976 25.436701-24.860776 8.09495-34.139573-15.613975-58.424423L168.015424 61.30405C157.008852 50.297477 113.046553 2.303701 100.920126 0.575925 81.818603-2.879627 66.780553 17.341751 78.363051 34.715498c12.158423 16.765826 469.699086 465.667609 476.06626 478.369961z" p-id="17125"></path><path d="M894.513207 513.085459c-39.898826 42.810448-83.861124 84.469045-126.095647 126.671573l-127.247498 127.247497-190.311319 190.311319c-8.670875 8.670875-24.860776 22.557075-31.803875 31.22795-12.734349 16.765826 2.879627 39.898826 24.28485 34.715498 9.822726-2.879627 118.576622-116.272921 128.431344-125.519722l348.818763-349.394687c5.791249-5.791249 10.398651-9.822726 16.1899-15.613976 25.436701-24.860776 8.09495-34.139573-15.613975-58.424423L508.163311 61.30405c-11.006573-11.006573-54.936875-59.000348-67.095298-60.728125-19.101523-3.455552-34.139573 16.765826-22.557075 34.139573 12.158423 16.765826 469.699086 465.667609 476.06626 478.369961z" p-id="17126"></path></svg>